<?xml version="1.0" encoding="utf-8"?>
<!-- Generator: Adobe Illustrator 26.0.2, SVG Export Plug-In . SVG Version: 6.00 Build 0)  -->
<svg version="1.1" id="레이어_1" xmlns="http://www.w3.org/2000/svg" xmlns:xlink="http://www.w3.org/1999/xlink" x="0px"
	 y="0px" viewBox="0 0 41 31" style="enable-background:new 0 0 41 31;" xml:space="preserve">
<style type="text/css">
	.st0{fill:#1E2346;}
</style>
<g>
	<path class="st0" d="M38.5,29.7H2.5c-0.6,0-1-0.4-1-1V2.3c0-0.6,0.4-1,1-1s1,0.4,1,1v25.4h34.1V2.3c0-0.6,0.4-1,1-1s1,0.4,1,1v26.5
		C39.5,29.3,39.1,29.7,38.5,29.7z"/>
	<path class="st0" d="M38.5,30.2H2.5c-0.8,0-1.5-0.7-1.5-1.5V2.3c0-0.8,0.7-1.5,1.5-1.5S4,1.5,4,2.3v24.9H37v-25
		c0-0.8,0.7-1.5,1.5-1.5S40,1.4,40,2.3v26.5C40,29.6,39.4,30.2,38.5,30.2z M2.5,1.8C2.2,1.8,2,2.1,2,2.3v26.4c0,0.3,0.2,0.5,0.5,0.5
		h36.1c0.3,0,0.5-0.2,0.5-0.5V2.3c0-0.3-0.2-0.5-0.5-0.5S38,2,38,2.3v26H3V2.3C3,2.1,2.7,1.8,2.5,1.8z"/>
</g>
<g>
	<path class="st0" d="M20.5,21c-0.2,0-0.3,0-0.5-0.1L1.9,10.5C1.6,10.4,1.4,10,1.4,9.7l0-7.4c0-0.6,0.5-1,1-1h36.1
		c0.3,0,0.5,0.1,0.7,0.3c0.2,0.2,0.3,0.4,0.3,0.7l0,7.2c0,0.4-0.2,0.7-0.5,0.9L21,20.9C20.9,21,20.7,21,20.5,21z M3.4,9.1l17.1,9.8
		l17-10l0-5.6H3.5L3.4,9.1z"/>
	<path class="st0" d="M20.5,21.5c-0.3,0-0.5-0.1-0.7-0.2L1.7,11c-0.5-0.3-0.8-0.8-0.8-1.3l0-7.4c0-0.8,0.7-1.5,1.5-1.5h36.1
		c0.4,0,0.8,0.2,1.1,0.4c0.3,0.3,0.4,0.7,0.4,1.1l0,7.2c0,0.5-0.3,1-0.7,1.3l-18,10.6C21.1,21.4,20.8,21.5,20.5,21.5z M2.5,1.8
		C2.2,1.8,2,2,2,2.3l0,7.4c0,0.2,0.1,0.3,0.3,0.4l18.1,10.3c0.2,0.1,0.3,0.1,0.5,0l18-10.6C38.9,9.8,39,9.6,39,9.4l0-7.2
		c0-0.1-0.1-0.3-0.1-0.4c-0.1-0.1-0.2-0.1-0.4-0.1H2.5z M20.5,19.4L2.9,9.4l0-6.6h35.1l0,6.4L20.5,19.4z M3.9,8.8l16.6,9.5L37,8.6
		l0-4.8H4L3.9,8.8z"/>
</g>
</svg>
