<?xml version="1.0" encoding="utf-8"?>
<!-- Generator: Adobe Illustrator 26.0.2, SVG Export Plug-In . SVG Version: 6.00 Build 0)  -->
<svg version="1.1" id="레이어_1" xmlns="http://www.w3.org/2000/svg" xmlns:xlink="http://www.w3.org/1999/xlink" x="0px"
	 y="0px" viewBox="0 0 39 29" style="enable-background:new 0 0 39 29;" xml:space="preserve">
<style type="text/css">
	.st0{fill:#1E2346;}
</style>
<path class="st0" d="M37.5,28.7H1.5c-0.6,0-1-0.4-1-1V1.3c0-0.6,0.4-1,1-1s1,0.4,1,1v25.4h34.1V1.3c0-0.6,0.4-1,1-1s1,0.4,1,1v26.5
	C38.5,28.3,38.1,28.7,37.5,28.7z"/>
<path class="st0" d="M19.5,20c-0.2,0-0.3,0-0.5-0.1L0.9,9.5C0.6,9.4,0.4,9,0.4,8.7l0-7.4c0-0.6,0.5-1,1-1h36.1
	c0.3,0,0.5,0.1,0.7,0.3c0.2,0.2,0.3,0.4,0.3,0.7l0,7.2c0,0.4-0.2,0.7-0.5,0.9L20,19.9C19.9,20,19.7,20,19.5,20z M2.4,8.1l17.1,9.8
	l17-10l0-5.6H2.5L2.4,8.1z"/>
</svg>
