<?xml version="1.0" encoding="UTF-8"?>
<svg id="_레이어_1" data-name="레이어 1" xmlns="http://www.w3.org/2000/svg" xmlns:xlink="http://www.w3.org/1999/xlink" viewBox="0 0 3044.83 549.35">
  <defs>
    <style>
      .cls-1 {
        fill: #fff;
      }

      .cls-2 {
        fill: #48a448;
      }

      .cls-3 {
        letter-spacing: -.03em;
      }

      .cls-4 {
        letter-spacing: .02em;
      }

      .cls-5 {
        font-family: NotoSansCJKkr-Medium-KSCpc-EUC-H, 'Noto Sans CJK KR';
        font-size: 75.3px;
        font-weight: 500;
      }

      .cls-5, .cls-6, .cls-7 {
        fill: #040000;
      }

      .cls-8 {
        fill: #e99325;
      }

      .cls-9 {
        fill: #055b99;
      }

      .cls-10 {
        letter-spacing: 0em;
      }

      .cls-6 {
        letter-spacing: -.03em;
      }

      .cls-6, .cls-7 {
        font-family: KoPubWorldDotumBold, KoPubWorldDotum;
        font-size: 253.57px;
      }

      .cls-11 {
        letter-spacing: -.01em;
      }

      .cls-12 {
        fill: #b60005;
      }

      .cls-13 {
        fill: #7d7d7d;
      }

      .cls-14 {
        clip-path: url(#clippath);
      }

      .cls-15 {
        letter-spacing: -.02em;
      }

      .cls-16 {
        fill: #d13a26;
      }

      .cls-17 {
        letter-spacing: -.02em;
      }

      .cls-18 {
        letter-spacing: -.01em;
      }

      .cls-7 {
        letter-spacing: -.03em;
      }

      .cls-19 {
        letter-spacing: -.01em;
      }

      .cls-20 {
        fill: url(#_무제_그라디언트_3);
      }

      .cls-21 {
        fill: url(#_무제_그라디언트_3-2);
      }

      .cls-22 {
        letter-spacing: 0em;
      }
    </style>
    <clipPath id="clippath">
      <path class="cls-12" d="M368.09,323.05c-1.31-5.13-2.9-10.39-4.58-15.96-5.96-19.74-13.85-42.12-13.85-74.64,0-18.83,3.84-33.88,8.51-55.77-5.24-5.62-19.48-20.42-24.03-25.31h-118.86c-4.55,4.89-18.8,19.69-24.03,25.31,4.68,21.89,8.51,36.94,8.51,55.77,0,32.52-7.88,54.9-13.85,74.64-1.68,5.57-3.28,10.83-4.58,15.96,0,0-7.47,28.9,12.69,54.89,14.42,19.18,39.98,33.98,60.46,44.72,8.25,4.31,14.9,6.53,20.19,10.01v.04h.01s.02,0,.03-.01c0,.01,.02,.01,.03,.01h.01v-.04c5.29-3.48,11.94-5.7,20.18-10.01,20.47-10.74,46.04-25.54,60.45-44.72,20.16-25.99,12.7-54.89,12.7-54.89Z"/>
    </clipPath>
    <linearGradient id="_무제_그라디언트_3" data-name="무제 그라디언트 3" x1="2221.27" y1="103.66" x2="2342.53" y2="200.29" gradientUnits="userSpaceOnUse">
      <stop offset="0" stop-color="#48a448"/>
      <stop offset="1" stop-color="#055b99"/>
    </linearGradient>
    <linearGradient id="_무제_그라디언트_3-2" data-name="무제 그라디언트 3" x1="2218.7" y1="106.88" x2="2339.96" y2="203.51" xlink:href="#_무제_그라디언트_3"/>
  </defs>
  <g>
    <path class="cls-13" d="M274.67,0C123.22,0,0,123.21,0,274.68s123.22,274.68,274.67,274.68,274.69-123.22,274.69-274.68S426.13,0,274.67,0Zm-.1,539.39c-146.19,0-264.71-118.52-264.71-264.71S128.38,9.98,274.57,9.98s264.71,118.51,264.71,264.7-118.51,264.71-264.71,264.71Z"/>
    <polygon class="cls-13" points="461.61 272.98 322.2 272 461.47 266 461.37 263.66 322.07 269.67 460.87 256.68 460.64 254.36 321.85 267.35 459.8 247.42 459.47 245.11 321.51 265.03 458.27 238.22 457.83 235.92 321.04 262.75 456.3 229.11 455.73 226.85 320.54 260.48 453.86 220.11 453.17 217.87 319.81 258.25 450.96 211.24 450.18 209.03 319.03 256.04 447.64 202.53 446.72 200.38 318.11 253.89 443.86 193.99 442.87 191.89 317.08 251.79 439.68 185.66 438.57 183.61 315.96 249.75 435.09 177.55 433.88 175.55 314.72 247.77 430.08 169.68 428.78 167.74 313.39 245.85 424.7 162.07 423.29 160.2 312 243.96 418.92 154.73 417.44 152.94 310.5 242.15 412.8 147.71 411.21 145.98 308.9 240.46 406.33 140.98 404.67 139.35 307.18 238.88 399.55 134.6 397.79 133.04 305.43 237.32 392.43 128.57 390.6 127.1 303.62 235.85 385.02 122.87 383.13 121.52 301.72 234.48 377.34 117.59 375.39 116.32 299.75 233.21 369.42 112.69 367.39 111.52 297.7 232.05 361.24 108.19 359.17 107.13 295.67 230.92 352.86 104.12 350.73 103.15 293.5 230.02 344.27 100.45 342.09 99.6 291.34 229.07 335.53 97.24 333.31 96.5 289.09 228.39 326.62 94.46 324.37 93.82 286.81 227.81 317.59 92.13 315.31 91.61 284.53 227.3 308.45 90.27 306.15 89.85 282.21 226.93 299.23 88.85 296.93 88.56 279.89 226.64 289.96 87.9 287.62 87.73 277.54 226.45 280.65 87.43 278.31 87.36 274.59 252.86 271.99 87.35 269.65 87.39 271.85 226.81 262.68 87.69 260.35 87.85 269.54 226.97 253.38 88.5 251.07 88.78 267.21 227.2 244.14 89.77 241.84 90.16 264.9 227.61 234.97 91.5 232.7 92.01 262.63 228.12 225.91 93.7 223.67 94.32 260.37 228.7 216.98 96.35 214.75 97.08 258.14 229.45 208.18 99.44 206 100.28 255.98 230.33 199.55 102.98 197.41 103.91 253.84 231.27 191.1 106.93 189.02 107.98 251.75 232.31 182.85 111.3 180.83 112.45 249.73 233.5 174.85 116.09 172.89 117.34 247.79 234.8 167.1 121.28 165.2 122.62 245.87 236.15 159.61 126.82 157.78 128.27 244.06 237.62 152.41 132.76 150.66 134.28 242.3 239.16 145.5 139.04 143.84 140.66 240.65 240.82 138.96 145.66 137.35 147.36 239.05 242.53 132.71 152.6 131.21 154.37 237.57 244.34 126.86 159.83 125.44 161.7 236.14 246.19 121.35 167.37 120.03 169.29 234.84 248.14 116.23 175.18 115.01 177.16 233.6 250.13 111.52 183.22 110.4 185.27 232.47 252.17 107.2 191.49 106.18 193.59 231.44 254.27 103.31 199.96 102.41 202.11 230.52 256.43 99.85 208.63 99.05 210.82 229.7 258.64 96.84 217.45 96.14 219.68 229.03 260.88 94.26 226.42 93.67 228.67 228.49 263.17 92.14 235.49 91.67 237.79 228.05 265.47 90.48 244.67 90.12 246.99 227.68 267.79 89.27 253.92 89.04 256.24 227.46 270.13 88.53 263.22 88.42 265.55 227.37 272.47 88.27 272.54 88.27 274.88 255.74 274.81 88.42 282.03 88.51 284.36 227.82 278.35 89.02 291.33 89.23 293.66 228.03 280.68 90.09 300.6 90.42 302.89 228.38 282.98 91.6 309.81 92.06 312.09 228.83 285.27 93.58 318.9 94.16 321.17 229.34 287.54 96.04 327.9 96.71 330.14 230.08 289.76 98.93 336.79 99.72 338.98 230.85 291.97 102.27 345.5 103.16 347.65 231.76 294.13 106.01 354.02 107.01 356.13 232.8 296.23 110.2 362.36 111.3 364.41 233.92 298.28 114.8 370.47 116 372.47 235.17 300.24 119.82 378.34 121.11 380.27 236.49 302.17 125.19 385.96 126.59 387.83 237.9 304.04 130.95 393.29 132.45 395.09 239.38 305.85 137.09 400.32 138.66 402.03 240.99 307.55 143.55 407.04 145.21 408.68 242.7 309.14 150.35 413.44 152.09 414.96 244.45 310.68 157.45 419.47 159.28 420.91 246.27 312.16 164.87 425.13 166.75 426.49 248.16 313.53 172.54 430.42 174.5 431.68 250.14 314.8 180.46 435.32 182.5 436.49 252.17 315.97 188.64 439.82 190.72 440.89 254.21 317.1 197.03 443.89 199.15 444.87 256.38 317.99 205.6 447.56 207.77 448.41 258.55 318.94 214.37 450.78 216.57 451.51 260.79 319.63 223.26 453.55 225.53 454.19 263.07 320.2 232.3 455.89 234.58 456.41 265.36 320.71 241.43 457.76 243.74 458.16 267.68 321.09 250.65 459.17 252.98 459.46 269.99 321.38 259.93 460.12 262.26 460.29 272.35 321.57 269.25 460.6 271.59 460.65 275.31 295.16 277.89 460.67 280.23 460.63 278.04 321.2 287.21 460.32 289.53 460.17 280.36 321.04 296.51 459.51 298.82 459.26 282.69 320.81 305.74 458.25 308.04 457.87 284.98 320.41 314.91 456.51 317.18 456.01 287.25 319.89 323.97 454.3 326.23 453.69 289.52 319.32 332.92 451.67 335.13 450.94 291.74 318.57 341.7 448.57 343.88 447.72 293.91 317.69 350.35 445.05 352.48 444.1 296.04 316.74 358.79 441.08 360.88 440.04 298.14 315.7 367.02 436.72 369.06 435.56 300.16 314.53 375.04 431.94 377 430.67 302.08 313.21 382.78 426.76 384.69 425.4 304 311.86 390.27 421.19 392.1 419.75 305.83 310.4 397.48 415.28 399.23 413.73 307.6 308.87 404.36 408.98 406.05 407.35 309.24 307.2 410.94 402.35 412.54 400.66 310.84 305.49 417.17 395.42 418.67 393.64 312.31 303.68 423.04 388.17 424.45 386.32 313.75 301.83 428.54 380.65 429.86 378.72 315.07 299.9 433.66 372.85 434.88 370.86 316.28 297.89 438.38 364.8 439.5 362.75 317.41 295.84 442.67 356.53 443.71 354.42 318.44 293.74 446.58 348.06 447.49 345.9 319.37 291.58 450.03 339.39 450.84 337.19 320.18 289.38 453.05 330.57 453.74 328.34 320.84 287.13 455.63 321.6 456.2 319.34 321.39 284.85 457.75 312.53 458.21 310.24 321.84 282.55 459.41 303.35 459.77 301.03 322.2 280.24 460.6 294.11 460.85 291.77 322.42 277.89 461.34 284.81 461.47 282.47 294.22 274.13 461.59 275.33 461.61 272.98"/>
    <g>
      <path class="cls-1" d="M253.99,96.03l-7.5,3.33c-1.85,.82-3.94,1.41-6.06,1.74l-2.04,.31-2.64,7.31s2.15,.05,3.52,.1c-1.13,3.03-4.52,12.2-4.52,12.2-.02,.01-.44,1.04-.62,1.46-.42,.07-3.15,.47-3.15,.47l-.9,1.84-2.31,5.67h16.91l2.91-7.17s-2.29-.31-3.5-.48c1.1-2.96,9.9-26.79,9.9-26.79Z"/>
      <path class="cls-1" d="M273.99,101.78c-1.04-1.25-2.93-2.72-6.16-2.72h-.03c-5.89,0-11.7,5.3-12.94,11.82-.13,.71-.2,1.43-.2,2.11,0,2.12,.65,4.04,1.91,5.54,.65,.8,1.46,1.38,2.34,1.83-1.88,1.39-3.91,2.4-5.92,2.76l-2.59,.49-.64,7.45,3.8-.02c1.37-.02,3.96-.59,6.01-1.35,6.24-2.3,14.2-8.57,16.12-18.81,.42-2.13,.73-6.17-1.7-9.11Zm-7.73,6.18c-.04,.39-.04,.7-.16,1.34,0,.02-.52,1.56-.9,2.68-.21,.07-.37,.15-.55,.19v-.02c0-.22,.02-.54,.11-.93,.3-1.61,.94-2.61,1.5-3.26Z"/>
      <path class="cls-1" d="M291.55,109.29c.73-.46,1.37-1.05,2.15-1.33,.04-.01,6.19-1.87,6.19-1.87l.54-2.51,.31-5.53-4.39,.84-.81,.17-4.58,1.09c-8.98,2.88-15.34,9.97-17.05,19-.14,.71-.17,1.4-.22,2.06-.01,.03-.24,.42-.24,.42,0,0,.21-.11,.22-.13,0,.12-.04,.23-.04,.32,0,2.46,.7,4.61,2.05,6.23,1.53,1.85,3.78,2.86,6.34,2.86,6.13,0,11.93-5.35,13.23-12.18,.15-.79,.22-1.56,.22-2.28,0-2.18-.63-4.11-1.86-5.6-.56-.69-1.32-1.14-2.07-1.56Zm-6.02,7.84c0,.25-.03,.58-.11,1.02-.48,2.47-1.35,3.6-1.97,4.1h0c0-.44,.02-1.01,.16-1.7,.26-1.35,.6-2.35,.91-3.1,.36-.17,.86-.42,.99-.42q.02,.06,.02,.09Z"/>
      <path class="cls-1" d="M318.19,101.62c-.96-1.17-2.73-2.56-5.73-2.56h-.05c-9.25,0-14.81,12.86-16.07,19.09-.65,3.05-.93,7.3,1.42,10.18,.95,1.17,2.71,2.57,5.7,2.57,9.26,0,14.89-13.05,16.17-19.36,.61-2.93,.87-7.07-1.43-9.92Zm-8.3,8.53c-.84,3.18-2.29,6.83-3.78,9.46,.84-3.18,2.31-6.85,3.78-9.46Z"/>
    </g>
    <g>
      <path class="cls-13" d="M232.94,126.98l.36-.88c3.19-.35,3.46-.54,4.69-3.89l5.3-14.27c.83-2.25,.7-2.46-1.18-2.51l-1.48-.04,.31-.89c2.4-.35,4.77-1.02,6.95-1.99l-7.29,19.7c-1.24,3.35-.99,3.54,2.09,3.89l-.35,.88h-9.41Z"/>
      <path class="cls-13" d="M267.05,103.74c3.57,0,2.75,4.58,2.45,6.21-.35,1.86-.97,3.37-1.53,4.6-.86,.63-2.44,1.17-3.59,1.17-2.73,0-3.6-2.23-3.04-5.13,.65-3.48,2.92-6.84,5.67-6.84h.04Zm.74-1.22c-4.13,0-8.59,4.11-9.52,9.01-.69,3.63,1.2,6.24,4.1,6.24,.59,0,1.26-.16,2.08-.54l3.01-1.41c-3.41,6.05-8.92,9.82-13.84,10.73l-.08,1.05c.71,0,2.86-.41,4.85-1.15,6.11-2.23,12.36-7.96,13.91-16.19,.68-3.53-.05-7.73-4.47-7.73h-.03Z"/>
      <path class="cls-13" d="M285.62,113.54c3.45,0,3.64,2.97,3.21,5.25-.83,4.37-3.22,7.44-5.93,7.44-2.93,0-3.27-3.22-2.69-6.32,.42-2.24,1.13-4.15,1.68-5.08,.96-.59,2.43-1.28,3.7-1.28h.02Zm11.42-11.24c-1.32,.27-3.13,.53-5.02,1.16-6.99,2.24-13.13,7.94-14.71,16.33-.84,4.45,1.01,7.65,4.73,7.65,4.24,0,8.8-3.93,9.81-9.37,.7-3.56-.8-6.48-4.31-6.48-.68,.01-1.47,.28-2.3,.64l-2.64,1.26-.03-.05c3.25-5.25,6.95-7.58,9.91-8.71,1.57-.6,3.32-1.14,4.51-1.33l.06-1.1Z"/>
      <path class="cls-13" d="M312.02,103.74c2.57,0,2.15,3.43,1.66,5.77-.79,3.69-5.04,16.72-9.75,16.72-2.42,0-2.13-3.36-1.57-5.96,.82-3.88,4.97-16.52,9.65-16.52h.02Zm.4-1.22c-6.64,0-11.53,10.63-12.69,16.32-.87,4.11-.5,8.61,3.73,8.61,6.6,0,11.58-10.73,12.77-16.6,.81-3.9,.46-8.33-3.78-8.33h-.05Z"/>
    </g>
    <g>
      <path class="cls-1" d="M372.55,301.99c-26.95-69.56-1.8-127.04-1.8-127.04l-31.04-33.93H209.77l-31.05,33.93s25.16,57.49-1.8,127.04c-4.61,11.91-14.36,45.84,3.61,75.07,20.55,33.44,70.01,54.86,94.19,67.49v-.31s.02,.31,.02,.31c24.18-12.63,73.65-34.05,94.19-67.49,17.97-29.23,8.22-63.16,3.6-75.07Z"/>
      <g>
        <path class="cls-12" d="M368.09,323.05c-1.31-5.13-2.9-10.39-4.58-15.96-5.96-19.74-13.85-42.12-13.85-74.64,0-18.83,3.84-33.88,8.51-55.77-5.24-5.62-19.48-20.42-24.03-25.31h-118.86c-4.55,4.89-18.8,19.69-24.03,25.31,4.68,21.89,8.51,36.94,8.51,55.77,0,32.52-7.88,54.9-13.85,74.64-1.68,5.57-3.28,10.83-4.58,15.96,0,0-7.47,28.9,12.69,54.89,14.42,19.18,39.98,33.98,60.46,44.72,8.25,4.31,14.9,6.53,20.19,10.01v.04h.01s.02,0,.03-.01c0,.01,.02,.01,.03,.01h.01v-.04c5.29-3.48,11.94-5.7,20.18-10.01,20.47-10.74,46.04-25.54,60.45-44.72,20.16-25.99,12.7-54.89,12.7-54.89Z"/>
        <g class="cls-14">
          <path class="cls-1" d="M379.04,336.01l-104.37-101.42-104.36,101.42c-2.99,15.49-2.41,31.8,.9,43.57l103.46-97.76,103.47,97.76c3.31-11.77,3.89-28.08,.9-43.57Z"/>
        </g>
      </g>
      <g>
        <path class="cls-1" d="M215.39,180.76c0-2.29-.28-3.06-2.38-3.25v-.76h10.65v.83c-2.14,.19-2.4,.95-2.4,3.25v28.84c0,2.3,.19,3.06,2.31,3.24v.89h-10.56v-.82c2.1-.17,2.38-.93,2.38-3.23v-28.99Z"/>
        <path class="cls-1" d="M253.24,192.92v-12.01c0-2.31,.19-3.06-1.78-3.26v-.91h9.91v.91c-2.19,.2-2.42,.94-2.42,3.26v28.74c0,2.31,.24,3.06,2.38,3.26v.89h-10.43v-.82c2.18-.17,2.34-.93,2.34-3.23v-14.2h-14.1v14.2c0,2.3,.1,3.06,2.11,3.23v.82h-10.24v-.75c2.11-.19,2.4-.95,2.4-3.24v-28.98c0-2.31-.21-3.06-2.42-3.25v-.83h9.88v.76c-1.92,.2-1.73,.96-1.73,3.25v12.17h14.1Z"/>
        <path class="cls-1" d="M266.12,206.94c.54,1.52,4.28,5.42,10.16,5.42,3.94,0,6.28-2.66,6.28-6.57s-2.67-6.25-6.8-8.35c-4.37-2.19-9.86-5.4-9.86-11.09s4.49-10.32,12.38-10.32c3.18,0,5.7,.75,7.44,1.26,.22,2.2,.37,3.4,.65,5.1l-.99,.17c-.61-1.72-2.6-4.35-8.11-4.35-3.57,0-5.67,2.7-5.67,5.92,0,3.39,2.62,5.47,6.75,7.5,4.92,2.36,10.08,5.46,10.08,11.78s-5.39,11.15-13.23,11.15c-1.88,0-3.85-.3-5.24-.69-1.51-.38-2.79-.85-3.86-1.28-.51-1.63-.65-3.68-.95-5.41l.97-.24Z"/>
      </g>
      <path class="cls-1" d="M302.17,348.05l-2.65,7.86s2.8,.38,5.47,1.12l-4.64,12.4s-9.01-1.51-17.72-1.95l.54-13.44s1.91-.03,4.53,.25l.89-7.85c-4.53-.37-9.1-.56-13.72-.56s-9.22,.2-13.76,.56l.89,7.85c2.62-.28,4.53-.25,4.53-.25l.53,13.44c-8.71,.44-17.72,1.95-17.72,1.95l-4.62-12.44c2.76-.65,5.47-1.06,5.47-1.06l-2.66-7.86c-9.8,1.55-19.33,3.91-28.5,7.03,11.64,16,22.86,38.26,22.86,38.26,35.63-7.12,65.91,0,65.91,0,5.37-11.46,18.22-32.37,22.85-38.27-9.17-3.13-18.7-5.48-28.49-7.03Z"/>
    </g>
    <g>
      <g>
        <path class="cls-13" d="M69.45,194.28c-.21,3.58-3.28,6.31-6.87,6.11-3.57-.21-6.31-3.27-6.09-6.85,.19-3.59,3.27-6.32,6.84-6.13,3.58,.22,6.32,3.29,6.12,6.86Z"/>
        <path class="cls-13" d="M495.01,193.33c.2,3.58-2.53,6.64-6.11,6.85-3.58,.2-6.63-2.53-6.85-6.11-.21-3.58,2.54-6.66,6.1-6.86,3.59-.2,6.66,2.54,6.86,6.11Z"/>
        <g>
          <path class="cls-13" d="M43.04,253.75c-4.68,1.25-14.27,5.3-14.59,13.01-.19,4.75,3.29,7.8,8.29,8,5.27,.21,8.71-2.89,11.86-8.71,4.09-7.53,9.2-12.9,17.08-12.57,9.17,.37,16.12,7.03,15.68,17.98-.19,4.78-1.94,8.91-2.65,10.62-3.08,.18-6.88,.56-12.57,1.09l-.53-3.14c5.12-1.33,11.61-3.56,11.87-9.78,.19-4.7-3.37-7.39-7.76-7.56-4.26-.18-7.43,2.48-10.74,8.9-3.98,7.82-9.27,13.02-17.75,12.67-9.98-.41-17.12-7.96-16.64-19.26,.12-3.01,.8-5.82,1.64-7.9,.83-2.15,1.56-3.56,2.13-4.59,2.22-.55,8.04-1.23,13.73-1.87l.95,3.1Z"/>
          <path class="cls-13" d="M71.8,315.44c1.45,7.54-5.89,13.27-19.11,15.81-12.5,2.39-19.17-.58-20.32-6.63-1.53-8.03,7-13.95,18.78-16.2,11.35-2.19,19.42,.59,20.65,6.95v.06Zm3.38,.38c-2.73-14.27-16.56-18.78-27.58-16.67-12.64,2.42-21.04,12.35-18.65,24.85,2.26,11.83,13.38,19.06,27.71,16.33,13.18-2.51,20.69-13.1,18.51-24.45v-.06Z"/>
          <path class="cls-13" d="M62.58,393.2c-2.25,1.04-4.24,2-5.57,2.95-2.63-2.96-6.22-7.01-8.33-11.63-5.95-13.05-1.58-25.12,11.18-30.94,14.36-6.54,26.52,.51,31.87,12.25,2.14,4.69,2.98,9.39,3.39,11.65-2.1,1.16-5.24,2.94-10.35,5.82l-1.44-2.22c6.88-5.28,6.98-10.52,4.93-15-3.16-6.94-12.07-9.27-23.23-4.19-9.86,4.5-17.39,12.64-13.14,21.97,.51,1.13,1.16,2.05,2.05,2.48,.84,.43,2.07,.41,3.93-.44l5.66-2.57c4.16-1.9,4.45-2.4,2.36-8.51l2.38-1.09,7.81,17.14-2.38,1.1c-1.92-2.54-2.25-2.8-6.16-1l-4.98,2.26Z"/>
          <path class="cls-13" d="M87.36,412.32c4.76-1.74,9.44-3.51,14.4-5.2l.11,.14-8.85,12.42-5.65-7.35Zm3.43,10.51c-1.3,2.03-3.27,5.09-4.44,6.84-1.79,2.72-2.48,2.93-5.28,.12l-2.07,1.6,10.77,13.99,2.08-1.59c-1.66-2.93-2.05-4.11,1.59-9.62,3.91-5.92,8.89-13.11,13.8-20.29l7.64-11.15-2.96-2.26-35.74,11.67c-5.99,1.94-6.99,1.38-9.69-1.29l-2.07,1.59,8.77,11.38,2.07-1.59c-2.5-3.9-1.82-4.35,1.47-5.75,2.57-1.06,5.39-2.17,7.08-2.74l6.98,9.07Z"/>
          <path class="cls-13" d="M125.15,435.14c2.82-3.46,3.85-4.72,3.99-6.73,.1-2.06-.78-3.4-2.62-5.25l1.65-2.03,8.95,7.3-1.04,38.37,.1,.08,7.65-9.4c3.9-4.77,5.8-7.69,6.91-9.39,1.36-2.2,.86-4.15-2.28-7.06l1.66-2.04,12.38,10.09-1.67,2.03c-2.48-1.76-4.35-1.89-6.24-.04-1.56,1.49-4.04,3.94-7.92,8.7l-17.12,21-3.22-2.63,2.14-41.16-.09-.08-9.2,11.28c-3.89,4.78-5.67,7.5-6.84,9.34-1.44,2.28-.88,4.15,2.17,6.99l-1.65,2.03-12.44-10.15,1.66-2.03c2.55,1.82,4.46,2.04,6.39,.17,1.67-1.6,4.03-3.86,7.91-8.63l8.79-10.77Z"/>
          <path class="cls-13" d="M184.18,501.22c-1.11,2.24-2.02,4.25-2.44,5.82-3.91-.62-9.26-1.47-13.82-3.72-12.87-6.32-17.15-18.43-10.95-31.02,6.96-14.18,20.84-16.41,32.42-10.72,4.62,2.27,8.25,5.37,9.99,6.85-.89,2.24-2.19,5.6-4.31,11.06l-2.53-.8c1.98-8.45-1.25-12.58-5.67-14.74-6.84-3.36-15.22,.47-20.63,11.48-4.78,9.73-5.44,20.79,3.75,25.31,1.12,.55,2.2,.87,3.16,.62,.93-.19,1.85-.99,2.75-2.84l2.76-5.57c2.01-4.11,1.92-4.7-3.59-8.07l1.16-2.36,16.92,8.31-1.15,2.35c-3.09-.75-3.52-.73-5.41,3.14l-2.4,4.88Z"/>
          <path class="cls-13" d="M230.08,480.44c.94-7.65,.33-8.32-5.23-9.58l.39-3.15,23.04,2.81-.39,3.16c-5.64-.1-6.5,.38-7.42,8.03l-2.18,17.85c-1.53,12.6,1.45,19.97,9.59,20.97,8.77,1.07,13.6-5.85,15.28-19.6l1-8.18c.69-5.65,.76-9.98,.7-12.63-.03-2.95-1.7-4.25-6.71-5.2l.38-3.15,19.24,2.35-.38,3.16c-3.86-.23-5.83,.72-6.61,3.65-.58,2.49-1.55,6.69-2.24,12.35l-1.02,8.52c-1.03,8.37-3.16,15.62-7.96,20.02-3.8,3.54-9.4,5.09-15.11,4.39-5.13-.63-9.92-2.3-13.33-6.2-3.47-4.03-4.59-10.26-3.4-20.01l2.38-19.57Z"/>
          <path class="cls-13" d="M290.18,493.95c-.65-4.4-.87-6.02-2.26-7.5-1.45-1.45-3.03-1.71-5.65-1.62l-.38-2.58,11.43-1.67,27.58,26.72,.12-.02-1.74-11.99c-.87-6.1-1.75-9.47-2.24-11.44-.71-2.49-2.48-3.44-6.75-3.09l-.37-2.6,15.79-2.29,.39,2.6c-2.99,.64-4.35,1.92-4.24,4.56,.02,2.16,.14,5.64,1.03,11.74l3.9,26.81-4.11,.6-28.87-29.41-.13,.02,2.1,14.4c.88,6.11,1.69,9.26,2.25,11.36,.71,2.61,2.46,3.45,6.61,3.12l.38,2.59-15.88,2.32-.39-2.6c3.07-.64,4.52-1.9,4.45-4.6-.06-2.3-.12-5.56-1.02-11.66l-2-13.76Z"/>
          <path class="cls-13" d="M339.06,480.53c-1.83-5.42-2.56-5.69-7.11-4.64l-.83-2.48,18.05-6.12,.85,2.47c-4.25,1.95-4.64,2.59-2.8,8.02l8.44,24.9c1.83,5.42,2.52,5.7,7.08,4.66l.85,2.49-18.07,6.12-.83-2.48c4.24-1.94,4.66-2.59,2.82-8.02l-8.45-24.9Z"/>
          <path class="cls-13" d="M393.89,496.31c-9.68-8.85-23.18-20.97-28.59-25.73-4.29-3.81-5.44-3.81-8.73-2.46l-1.31-2.33,16.21-9.06,1.32,2.35c-3.83,2.65-3.58,3.18-1.46,5.23,2.63,2.55,13.07,12.02,20.5,18.57l.16-.09c-1.58-9.33-3.42-18.87-4.85-25.09-1-4.52-1.66-5.26-6.21-3.15l-1.31-2.34,13.19-7.35,1.3,2.32c-3.13,2.31-3.79,3.2-2.89,10,.76,5.26,3.5,22.56,6.13,37.23l-3.46,1.92Z"/>
          <path class="cls-13" d="M407.12,444.64c-3.77-4.31-4.57-4.32-8.31-1.61l-1.72-1.97,22.25-19.54c.81,.84,4.38,4.43,7.56,7.56l-1.77,2.01c-2.4-1.76-4.27-2.66-5.76-2.83-1.58-.22-3.37,.68-5.93,2.92l-1.89,1.66c-1.66,1.46-1.76,1.79-.28,3.47l9.09,10.33,3.18-2.78c4.05-3.57,3.95-4,1.1-8.42l1.96-1.73,9.99,11.38-1.98,1.72c-4.13-3.52-4.52-3.67-8.59-.1l-3.18,2.79,8,9.1c2.18,2.49,3.37,3.46,4.77,3.1,1.16-.32,2.52-1.44,4.32-3.02,2.1-1.84,3.83-4.08,3.69-6.27-.04-1.64-.69-4.16-1.97-7.29l2.33-1.24c1.69,2.49,5.33,8.55,6.16,10.31l-24.14,21.22-1.73-1.97c3.82-4,3.95-4.77,.18-9.07l-17.36-19.74Z"/>
          <path class="cls-13" d="M439.04,408.26c-1.1-.85-1.61-1.37-1.7-1.99-.07-.53,.15-1.31,1-2.44,1.95-2.58,6.52-4.4,12.04-.19,2.63,1.98,4.41,4.41,4.69,7.38,.16,1.87-.58,3.66-2.16,5.73l-.97,1.29-12.9-9.76Zm18.28,24.31c4.57,3.46,4.63,4.21,2.07,8.36l2.09,1.57,11.51-15.16-2.09-1.59c-3.2,3.48-3.97,3.66-8.54,.2l-8-6.09,.79-1.05c1.24-1.61,2.39-1.82,4.51-1.36,3.92,.84,8.15,1.88,11.73,2.19,4.93,.37,7.74-.16,12.83-6.32,.57-.65,.96-1.13,1.44-1.67l-1.77-1.73c-1.23,.83-2.41,1.07-4.44,1.25-1.76,.16-4.68-.08-9.16-.53-3.62-.31-8.65-1.37-10.7-1.78,1.07-4.7,.25-9.46-4.68-13.21-3.21-2.43-6.67-3-9.68-2.02-2.86,.92-5.47,3.21-8.72,7.49l-10.59,13.98,2.09,1.58c3.15-3.35,3.84-3.53,8.36-.11l20.97,15.99Z"/>
          <path class="cls-13" d="M480.58,390.91c3.94,.61,12.51,.75,15.32-4.93,1.73-3.52,.12-6.98-3.57-8.79-3.9-1.92-7.52-.73-11.83,2.6-5.61,4.32-11.23,6.65-17.06,3.78-6.79-3.34-9.8-10.67-5.81-18.77,1.73-3.54,4.41-6.07,5.51-7.12,2.4,.9,5.38,1.87,9.85,3.37l-.64,2.54c-4.31-.69-9.93-1.19-12.21,3.43-1.71,3.46,.09,6.66,3.33,8.26,3.15,1.56,6.41,.61,11.05-3.12,5.6-4.57,11.32-6.73,17.59-3.65,7.38,3.65,10.25,11.7,6.13,20.05-1.09,2.22-2.55,4.11-3.87,5.4-1.33,1.34-2.37,2.17-3.14,2.75-1.86-.31-6.46-1.74-10.96-3.15l.32-2.66Z"/>
          <path class="cls-13" d="M476.38,346.28c-5.45-1.75-6.09-1.32-7.97,2.96l-2.49-.8,5.82-18.17,2.5,.8c-.97,4.57-.68,5.27,4.78,7.02l25.02,8c5.46,1.75,6.1,1.36,7.98-2.93l2.5,.8-5.82,18.16-2.49-.78c.95-4.58,.68-5.3-4.78-7.04l-25.04-8.01Z"/>
          <path class="cls-13" d="M479.23,310.53l-.24,1.64c-.65,4.66,.03,6.32,.97,7.38,1.02,1.03,2.9,2.07,6.3,3.45l-.36,2.54c-5.43-1.02-10.09-2.06-13.56-2.67l.21-1.48c1.68-.77,1.94-1.33,2.18-3.05l3.54-25.12c.23-1.65-.09-2.41-1.25-3.58l.19-1.43c2.88,.34,8.66,.86,13.57,1.19l-.22,2.55c-3.84,.24-6.09,.69-7.32,1.52-1.31,.86-2.03,2.86-2.5,6.23l-.33,2.37,31.9,4.5c5.68,.79,6.24,.24,7.49-5.21l2.6,.37-2.9,20.49-2.58-.37c.26-5.3-.13-6.01-5.81-6.83l-31.9-4.49Z"/>
          <path class="cls-13" d="M506.25,265.29c-1.87,.12-2.41,.42-3.87,1.18-3.87,2.04-8.05,4.63-15.5,9.12-4.27,2.62-4.61,3.42-4.92,6.68l-2.61,.18-1.26-17.71,2.61-.17c.94,4.15,1.56,4.03,3.66,2.9,4.65-2.5,9.75-5.51,14.12-8.2-3.68-1.53-10.54-4.14-14.84-5.38-2.55-.74-3.17-.57-3.41,4.11l-2.61,.2-1.07-14.98,2.61-.18c.76,3.91,1.69,4.87,6.03,6.89,4.08,1.92,7.76,3.66,14.03,6,2.48,.95,2.93,1.09,5.65,.89l7.91-.55c6.09-.44,6.54-.99,6.62-6.57l2.6-.18,1.45,20.41-2.61,.19c-.85-5.28-1.36-5.77-7.45-5.33l-7.15,.51Z"/>
        </g>
      </g>
      <g>
        <g>
          <path class="cls-13" d="M269.7,62.05c-2.31,.95-2.37,1.34-4.42,1.34s-.97,.19-2.73-.23c-1.06-.25-1.4-.34-2.52-.6-1.67-.4-5.64-1.03-5.76-6.79-.14-6.15-.52-12.16,.5-13.32,1.03-1.15,.56-2.25,.68-3.15,.13-.89,1.29-1.28,1.92-1.15,.64,.12,1.75,.55,3.55,.55,0,0,1.66-.47,2.69-.55,.64-.06,2.05,.38,3.84-1.16,0,0,3.08-2.36,3.2-4.15,.13-1.79-.36-4.09-4.35-4.09-3.46,0-6.92-.22-8.97-.52-1.72-.25-3.06-.38-4.35-.51,0,0-2.78-1.06-4.99,1.16-1.67,1.66-1.34,2.72-.77,3.65,.9,1.47,4.03,2.69,3.84,3.45-.19,.78-1.73,1.74-2.12,2.31-.38,.58-1.15,1.53-.76,2.49,.38,.97,0,2.12-.96,3.07-.97,.97-.97,3.07-.97,4.04l.2,13.39s-1.53,9.65,14.21,9.84c0,0,7.63-.07,10.5-.94,1.15-.34,1.49-1.38,2.27-2.18,.55-.59,.58-2.5,.38-3.42-.38-1.79-2.32-3.31-4.12-2.55Z"/>
          <path class="cls-13" d="M305.06,46.68c-.26-7.04-1.37-15.62-1.63-16.52-.08-.3,.22-4.76-1.67-4.99-2.05-.26-1.91,.09-3.07,.22,0,0-2.43-.17-2.3,2.52,.13,2.7-.78,5.33-.78,7.38,0,1.08,.44,12.98,.71,17.39-1.83,.09-4.17,.13-5.63,.14-.15-9.11-.73-22.38-3.4-24.2-2.04-1.38-2.6-2.18-4.36-1.79-.9,.19-1.53,.55-1.73,1.12,0,0-.71,1.07-.02,3.64,.55,2.12,.22,21.11,.41,25.14,.19,4.03,0,13.2,.96,13.77,.96,.57,2.12,.85,3.46-.31,1.35-1.15,3.85-.22,5-1.34,.49-.48,0-5.41-.19-7.52-.02-.18-.03-.56-.04-1.07,.36-.17,.83-.38,1.5-.65,1.36-.55,3.03-.49,4.42-.26,.18,3.9,.37,8.08,.45,8.32,.13,.39,.25,3.59,3.71,3.59,4.23,0,4.87-1.16,5.64-4.99,.77-3.84-1.23-13.78-1.45-19.59Z"/>
        </g>
        <g>
          <path class="cls-13" d="M172.05,72.62c3.7-2.31,4.49-7.15,4.3-10.87-.19-3.74-2.03-12.35-5.81-13.59-2.84-.94-3.9-.19-4.26-.03-.87,.41-2.02,1.63-2.75,1.88-1.05,.34-2.75,.86-5.71,2.39-2.97,1.52-7.95,3.27-9.1,3.53-1.14,.25-2.65,.07-3.74,.15-1.09,.09-1.83,1.99-1.83,1.99,0,0-1.51,4.49-.54,6.58,.98,2.09,2.58,3.11,6.75,1.45,4.17-1.66,4.5-3.08,5.85-4.42,1.35-1.35,5.64-6.49,8.37-6.06,2.74,.42,3.8,9.66,2.48,20.37-.04,.03,.24-.37,3.23-2.29,1.3-.82,1.89-.49,2.75-1.05Z"/>
          <path class="cls-13" d="M208.41,41.5c-.45-.36-1.02-1.19-1.3-1.65-.33-.51-1.31-1.27-1.14-1.16-1.17-1.01-3.85,.57-4.83,.87-.98,.32-2.55,.87-3.91,1.79-.91,.61-2.02,1.51-3.98,2.18-1.49,.52-2.95,1.23-4.28,1.72-.76,.27-1.42,.54-1.85,.73-.8-1.31-1.61-2.57-2.11-3.17-.58-.69-3.8-7.26-7.64-5.47-1.11,.51-1.09,1.92-1.39,2.47,0,0-.61,3.53,1.05,7.71,1.66,4.17,5.96,11.9,6.74,13.25,.76,1.34,2.27,2.14,3.36,2.07,1.09-.09,2.14-.58,3.06-.73,.93-.15,1.83-.94,2.27-2.1,.76-1.94,.44-2.08-.14-3.65-.53-1.41-2.34-5.32-2.68-6.06,.33-.14,.91-.33,1.93-.68,2.19-.74,4.71,.2,6.48,.37,1.77,.17,5.81-1.51,6.48-1.98,1.11-.8,1.63-1.95,2.62-2.78,2.75-2.28,1.73-3.35,1.28-3.71Z"/>
          <path class="cls-13" d="M192.49,65.21l-4.62,1.31c-.64-1.07-1.59-1.28-1.59-1.28,0,0-1.29-.05-2.07,1.31-.29,.51-3.78,2.35-4.96,3.91-.39,.5-2.11,1.6-3.13,3.38-1.12,1.97-4.73,9,1.14,18.12,4.79,7.43,14.05,5.7,16.21,5.06,3.41-1.02,11.6-4.86,14.38-10.24,3.11-6.01,.87-10.99-1.48-15.11-2.45-4.31-8.87-7.51-13.88-6.45Zm8.35,16.4c-1.35,4.67-6.99,7.12-11.31,7.04-4.69-.08-7.4-4.35-7.24-8.86,.15-4.52,3.47-6.28,3.47-6.28,3.85-2.07,4-1.87,4-1.87,4.72-1.09,5.82,.2,7.05,.81,.71,.35,5.61,3.72,4.03,9.15Z"/>
        </g>
        <g>
          <path class="cls-13" d="M369.07,42.58c.71,.75,3.33,2.4,5.51,.02,2.16-2.38,1.16-4.75,.77-6.21-.38-1.45-3.18-3.61-6.03-3.44,0,0-3.19,.54-2.65,3.42,.47,2.48,1.7,5.46,2.4,6.21Z"/>
          <path class="cls-13" d="M353.17,78.49s3.44,.8,4.98,.53c1.17-.21,3.03-.44,3.9-.17,.86,.26,4.46-.47,6.89-3.57,2.44-3.1,4.36-10.55,.91-16.81,0,0-2.03-3.2-3.62-4.64-1.59-1.45,2.41-.01,3.1,.32,.7,.32,2.97,1.8,4.64,.32,1.69-1.48,1.04-1.21,2.2-1.79,.93-.48,1.19-1.52,.3-3.25-.66-1.3-1.73-2.64-3.65-3.69-1.92-1.03-6.9-3.36-8.6-4.29-1.68-.94-7.26-3.81-7.26-3.81,0,0-4.48-2.52-5.93,.91-1.46,3.41-1.97,5.44,.73,7.82,2.67,2.37,4.09,3.03,4.9,3.56,0,0-4.74,.05-10.17,4.44-3.66,2.95-6.91,9.36-4.18,15.01,2.65,5.48,7.16,7.67,10.86,9.12Zm-1.05-17.13c2.5-5.05,7.38-3.1,7.38-3.1,6.06,2.17,6.68,7.1,5.91,9.73-.94,3.24-2.47,3.89-3.16,3.86-.69-.04-2.19-.45-3.22-.38-1.02,.09-1,.86-2.39,.48-1.39-.35-2.76-1.04-3.78-2.79-1.02-1.75-2.73-3.77-.75-7.8Z"/>
          <path class="cls-13" d="M401.02,77.39c-2.1-3.09-4.75-3.77-9.52-6.56-3.63-2.12-5.1-4.2-5.67-5.33,1.3-2.88,2.43-5.4,2.88-6.57,1.23-3.23,4.18-8.36,3.37-12.98-.74-4.21-3.35-2.38-3.4-2.33-.6,.7-1.68,2.08-2.46,2.56-.79,.48-2.29,1.68-2.39,2.48,0,0-6.46,14.29-9.52,22.06-3.86,9.79-4.55,11.87-2.75,12.56,1.19,.47,2.72,.52,4.36-.27,1.65-.79,3.38-1.48,4.25-4.47,.35-1.21,1.73-4.37,3.3-7.85,1.82,1.07,2.03,1.37,3.03,3.88,1.08,2.71,2.82,5.6,6.76,7.61,4.58,2.34,6.53,1.15,7.2,.31,.46-.57,2.31-2.5,.55-5.11Z"/>
          <path class="cls-13" d="M380.09,91.65s-1.02-.38-2.16-.82c-1.31-.51-2.89-1.35-3.67-2.13-.76-.79-6.5-3.64-10.96-5.58-5.4-2.35-10.14-3.3-13.39-3.98-3.34-.71-3.82,.91-4.15,1.31,0,0-1.94,2.63,2.35,4.35,3.35,1.34,4.77-.26,9.3,1.85,4.53,2.12,11.78,3.84,14.28,5.44,2.51,1.6,3.04,2.58,2.02,5.08-1.02,2.48-3.52,7.54-3.52,7.54,0,0-.91,2.85,1.28,3.6,2.21,.75,3.51,.34,4.94-.28,1.95-.82,3.91-5.67,4.45-6.82,.54-1.16,3.22-6-.78-9.55Z"/>
        </g>
        <g>
          <path class="cls-13" d="M99.72,119.45s-1.9,1.17-2.45-.45c0,0-1.63-5.61-4.98-7.87,0,0-2.47-2.47-4.87-2.11-1.52,.22-1.43,1.02-1.43,1.23,0,.72,.23,.6,.64,1.8,.68,2.03,.95,2.72,.42,11.2-.48,7.54-.21,6.59-.51,9.01-.23,1.76-.52,8.72,2.27,11.23,2.43,2.19,5.15,2.41,7.08-.29,1.81-2.54,1.25-5.01,1.51-6.92,0,0,.15-3.43,.76-4.63,1.1-2.15,3.29-4.36,6.81-4.02,3.19,.3,4.35,1.87,5.03,6.35,0,0,.68,1.32,.78,2.13,.09,.81-.64,5.49-2.27,8.46-1.5,2.72-2.1,1.78-2.92,2.78-.81,1.01-1.83,5.46-1.29,7.27,.54,1.81,1.31,2.57,4.57,2.21,2.26-.25,3.64-1.6,5.61-5.61,1.59-3.25,3.73-11.88,2.9-16.84-.74-4.41-2.47-9.65-7.43-13.58-4.34-3.44-8.58-2.24-10.23-1.36Z"/>
          <path class="cls-13" d="M137.02,111.3c-4.61-4.08-16.29-15.75-16.29-15.75-5.84-5.56-11.7-6.54-13.47-6.4-.64,.04-2.01,1.2-2.22,3.07-.29,2.56,2.1,4.56,3.19,5.64,1.09,1.09,1.41,.97,2.23,2.33,.8,1.34,.97,1.51,4.95,5.26,.81,.81,.68,2.57-.81,4.06-1.5,1.5-5.01,5.59-5.01,5.59,0,0,.25-.51-.57,.85-.82,1.36,.99,1.72,1.94,2.13,.42,.18,1.88,.92,3.64,.22,1.26-.5,3.01-.81,4.35-1.98,1.4-1.22,3.41-3.38,3.41-3.38,1.09-.53,1.32-.85,2.13-.3,.83,.54,12.23,11.44,14.26,12.4,2.04,.94,3.03,0,3.84-.55,.81-.55,2.11-.06,2.16-3.55,.06-4.5-3.13-5.56-7.75-9.64Z"/>
        </g>
        <g>
          <path class="cls-13" d="M446.9,106.22c1.36,1.35,.99,1.65,1.71,2.48,1.08,1.27,3.64,3.18,4.91,4.14,1.97,1.47,6.13,5.76,6.04,7.12-.09,1.36,.09,3.58-5.34,9.56-6.13,6.74-6.88,7.61-6.97,9.5-.09,1.91-.09,1.72,.72,2.9,.89,1.27,1.94,2.18,5.04,.15,0,0,3.65-2.86,5.92-4.22,2.26-1.37,4.22-2.95,6.7-6.7,2.08-3.17,3.58-8.13-.7-14.51-2.47-3.68-2.71-3.25-3.8-4.88-1.09-1.63-6-5.95-7.63-7.94-1.63-2-3.56-4.64-4.47-5.55-.61-.6-1.81-.18-2.53,.36,0,0-1.7,.6-1.61,2.68,.1,2.09,.66,3.55,2.01,4.91Z"/>
          <path class="cls-13" d="M420.72,111.23c.09,.64,.41,1.76,1.09,2.35,.86,.77,2.45,.27,3.16,.45,.73,.18,2.57,.39,3.48,.21,.9-.18,1.07-.54,1.08-1.27,0-.72,1.42-2.75,2.06-3.91,.64-1.18,.05-3.68-.59-4.49-.63-.82-1.66-.89-3.29,.38,0,0-1.36,1.18-3.08,1.26-1.71,.1-3.46,1.84-3.82,2.93-.37,1.08-.19,1.45-.09,2.08Z"/>
          <path class="cls-13" d="M459.84,157.76c-.74-1.09-.74-1.81-1.46-2.9-.73-1.09-8.67-8.36-10.57-10.25-1.1-1.1-6.33-7.16-13.49-14.35,.51,.09,1.06,.14,1.7,.07,2.12-.22,3.17,.1,3.79,.19,.64,.09,5.64-3.13,5.8-5.61,.17-2.89,.17-5.29-.09-6.06-.54-1.62-2.63-2.63-4.44-1.17-.9,.72-2.26,.81-2.72,.91,0,0-2.72,.91-3.98,3.07-1.28,2.17-1.72,2.99-2.36,3.8-.35,.45-.72,1.09-.99,1.58-4.43-4.3-9.41-8.78-14.49-12.71,0,0-2.08-1.36-2.99-2.82-.9-1.44-.14-3.11-2.54-3.98,0,0-1.36-.09-2.63,.09-1.27,.18-1.36,.82-1.9,1-.55,.18-2.27,.63-1.55,2.44,.73,1.81,1,2.99,1.81,3.81,.82,.81,1.42,2.37,2.51,3.28,1.08,.91,4.28,2.6,6.09,4.05,1.81,1.45,17.88,15.27,20.86,18.62,2.98,3.35,14.9,16.06,16.62,18.5,1.72,2.45,2.35,2.18,3.99,2.54,1.63,.36,3.56-.61,4.01-1.23,.44-.64-.3-1.76-1.01-2.84Z"/>
        </g>
      </g>
    </g>
  </g>
  <g>
    <text class="cls-7" transform="translate(601.47 274.2) scale(.95 1)"><tspan x="0" y="0">서강대학교</tspan></text>
    <text class="cls-6" transform="translate(2430.8 275.72) scale(.95 1)"><tspan x="0" y="0">사업단</tspan></text>
    <g>
      <g>
        <g>
          <path class="cls-20" d="M2313.51,231.91c-2.17-4.59-3.67-9.61-4.47-14.93-.78-5.2-1.18-10.16-1.18-14.74,0-3.17,.16-6.51,.47-9.93,.31-3.46,.9-6.91,1.73-10.25,.84-3.36,1.97-6.62,3.37-9.7,1.45-3.19,3.35-6.02,5.65-8.4,2.32-2.4,5.08-4.35,8.23-5.79,3.19-1.46,6.92-2.2,11.09-2.2s7.9,.74,11.09,2.2c3.14,1.44,5.91,3.39,8.23,5.79,2.3,2.39,4.19,5.22,5.65,8.41,1.4,3.09,2.54,6.35,3.37,9.7,.83,3.33,1.42,6.78,1.73,10.25,.31,3.43,.47,6.77,.47,9.93,0,4.12-.37,8.6-1.01,13.27,10.22-14.09,16.32-31.36,16.32-50.1,0-47.22-38.28-85.51-85.51-85.51-13.22,0-25.69,3.09-36.86,8.44,1.75,.25,3.47,.61,5.13,1.12,3.33,1.01,6.31,2.59,8.86,4.71,2.57,2.14,4.63,4.86,6.12,8.09,1.49,3.23,2.24,7.02,2.24,11.26,0,4.98-1.46,9.49-4.33,13.41-1.65,2.25-3.6,4.1-5.84,5.54,.66,.33,1.3,.69,1.91,1.08,2.25,1.44,4.17,3.26,5.73,5.42,1.54,2.12,2.7,4.53,3.47,7.14,.75,2.57,1.14,5.32,1.14,8.17,0,4.43-.84,8.39-2.49,11.78-1.64,3.37-3.88,6.23-6.64,8.48-2.73,2.22-5.91,3.92-9.44,5.04-3.49,1.11-7.21,1.67-11.05,1.67-6.66,0-12.61-1.62-17.71-4.8-5.22-3.27-8.89-8.45-10.9-15.4l-.55-1.92h18.17c.95,2.06,2.05,3.72,3.31,4.87,1.72,1.57,4.44,2.37,8.09,2.37,1.83,0,3.55-.32,5.13-.96,1.61-.65,3.05-1.55,4.29-2.67,1.2-1.08,2.16-2.43,2.87-4,.7-1.56,1.05-3.34,1.05-5.31,0-3.01-.58-5.4-1.73-7.11-1.19-1.78-2.68-3.08-4.53-3.97-1.98-.96-4.2-1.59-6.62-1.87-2.6-.31-5.18-.46-7.67-.46h-2.4v-14.88h2.4c4.04,0,7.35-.28,9.86-.84,2.36-.53,4.19-1.26,5.45-2.17,1.15-.84,1.93-1.85,2.39-3.08,.52-1.4,.78-3.02,.78-4.8,0-3.87-1.02-6.65-3.11-8.51-2.18-1.93-4.86-2.87-8.21-2.87-2.49,0-4.74,.65-6.7,2.22-5.08,4.06-5.11,8.22-5.11,8.22l-14.13-.06c-11.16,14.45-17.87,32.51-17.87,52.17,0,47.23,38.28,85.51,85.51,85.51,9.85,0,19.27-1.75,28.07-4.81-1.44-.68-2.81-1.45-4.03-2.42-3.93-3.09-7.05-7.05-9.28-11.77Zm-14.76-57.46c-4.98,0-9.05-4.07-9.05-9.05s4.07-9.05,9.05-9.05,9.05,4.07,9.05,9.05-4.07,9.05-9.05,9.05Z"/>
          <path class="cls-21" d="M2352.12,188.67c-.4-2.38-.97-4.73-1.7-6.96-.7-2.13-1.63-4.07-2.76-5.75-1.07-1.58-2.39-2.85-3.93-3.79-1.46-.88-3.25-1.33-5.33-1.33s-3.87,.45-5.33,1.33c-1.54,.93-2.86,2.2-3.93,3.78-1.14,1.69-2.07,3.62-2.76,5.75-.73,2.24-1.3,4.58-1.7,6.97-.41,2.41-.67,4.82-.78,7.14-.12,2.4-.17,4.53-.17,6.42,0,2.7,.17,5.98,.51,9.73,.33,3.64,1.05,7.19,2.14,10.56,1.04,3.21,2.6,5.96,4.62,8.17,1.81,1.97,4.23,2.93,7.4,2.93s5.59-.96,7.4-2.93c2.02-2.21,3.58-4.96,4.62-8.17,1.09-3.37,1.81-6.92,2.14-10.56,.34-3.75,.51-7.03,.51-9.73,0-1.89-.06-4.02-.17-6.42-.11-2.32-.37-4.73-.78-7.15Z"/>
        </g>
        <g>
          <path class="cls-1" d="M2367.94,215.51c.64-4.67,1.01-9.15,1.01-13.27,0-3.16-.16-6.5-.47-9.93-.32-3.47-.9-6.92-1.73-10.25-.83-3.35-1.97-6.61-3.37-9.7-1.45-3.19-3.35-6.01-5.65-8.41-2.32-2.4-5.09-4.35-8.23-5.79-3.19-1.46-6.92-2.2-11.09-2.2s-7.9,.74-11.09,2.2c-3.14,1.44-5.91,3.39-8.23,5.79-2.3,2.39-4.19,5.22-5.65,8.4-1.4,3.08-2.54,6.35-3.37,9.7-.84,3.35-1.42,6.8-1.73,10.25-.31,3.41-.47,6.75-.47,9.93,0,4.58,.4,9.54,1.18,14.74,.8,5.32,2.3,10.35,4.47,14.93,2.23,4.72,5.35,8.68,9.28,11.77,1.23,.97,2.6,1.74,4.03,2.42,16.66-5.8,30.95-16.58,41.12-30.59Zm-15.38-3.54c-.33,3.64-1.05,7.19-2.14,10.56-1.04,3.21-2.6,5.96-4.62,8.17-1.81,1.97-4.23,2.93-7.4,2.93s-5.59-.96-7.4-2.93c-2.02-2.21-3.58-4.95-4.62-8.17-1.09-3.37-1.81-6.92-2.14-10.56-.34-3.75-.51-7.03-.51-9.73,0-1.89,.06-4.02,.17-6.42,.11-2.33,.37-4.73,.78-7.14,.4-2.39,.97-4.73,1.7-6.97,.69-2.13,1.62-4.06,2.76-5.75,1.07-1.58,2.39-2.85,3.93-3.78,1.46-.88,3.25-1.33,5.33-1.33s3.87,.45,5.33,1.33c1.54,.93,2.86,2.21,3.93,3.79,1.14,1.68,2.07,3.62,2.76,5.75,.73,2.24,1.3,4.58,1.7,6.96,.41,2.42,.67,4.83,.78,7.15,.12,2.4,.17,4.53,.17,6.42,0,2.7-.17,5.98-.51,9.73Z"/>
          <path class="cls-1" d="M2250.35,105.07c1.96-1.57,4.21-2.22,6.7-2.22,3.34,0,6.03,.94,8.21,2.87,2.1,1.86,3.11,4.64,3.11,8.51,0,1.78-.26,3.4-.78,4.8-.45,1.23-1.23,2.24-2.39,3.08-1.26,.92-3.09,1.65-5.45,2.17-2.5,.56-5.82,.84-9.86,.84h-2.4v14.88h2.4c2.49,0,5.07,.16,7.67,.46,2.42,.29,4.64,.92,6.62,1.87,1.85,.89,3.33,2.2,4.53,3.97,1.14,1.7,1.73,4.1,1.73,7.11,0,1.97-.35,3.75-1.05,5.31-.7,1.57-1.67,2.91-2.87,4-1.24,1.12-2.68,2.02-4.29,2.67-1.58,.64-3.3,.96-5.13,.96-3.65,0-6.37-.8-8.09-2.37-1.26-1.15-2.36-2.81-3.31-4.87h-18.17l.55,1.92c2.01,6.95,5.67,12.13,10.9,15.4,5.1,3.19,11.05,4.8,17.71,4.8,3.84,0,7.56-.56,11.05-1.67,3.54-1.12,6.71-2.82,9.44-5.04,2.76-2.25,4.99-5.11,6.64-8.48,1.65-3.39,2.49-7.36,2.49-11.78,0-2.85-.38-5.6-1.14-8.17-.77-2.61-1.94-5.02-3.47-7.14-1.56-2.16-3.48-3.98-5.73-5.42-.61-.39-1.25-.75-1.91-1.08,2.24-1.44,4.2-3.29,5.84-5.54,2.87-3.92,4.33-8.43,4.33-13.41,0-4.24-.75-8.03-2.24-11.26-1.49-3.23-3.55-5.95-6.12-8.09-2.54-2.12-5.53-3.7-8.86-4.71-1.67-.5-3.38-.87-5.13-1.12-12.12,5.81-22.65,14.36-30.78,24.89l14.13,.06s.03-4.16,5.11-8.22Z"/>
          <path class="cls-1" d="M2298.75,156.35c-4.98,0-9.05,4.07-9.05,9.05s4.07,9.05,9.05,9.05,9.05-4.07,9.05-9.05-4.07-9.05-9.05-9.05Z"/>
        </g>
      </g>
      <g>
        <path class="cls-8" d="M1970.1,79.79c21.99,0,41.85,8.4,54.51,23.05,18.27,21.06,18.27,46.8,18.27,76.6v133.23h-36.39V179.44c0-25.83,1-42.9-8.56-53.76-6.34-7.25-16.22-11.24-27.82-11.24s-21.48,3.99-27.81,11.23c-9.58,10.88-8.58,27.94-8.58,53.77v133.23h-36.38V179.44c0-29.8,0-55.54,18.27-76.61,12.65-14.64,32.51-23.04,54.5-23.04Z"/>
        <path class="cls-9" d="M1689.19,260.53V79.79h36.26V251.59c0,14.34,11.63,24.69,25.98,24.69h83.31v36.39h-93.59c-28.69,0-51.95-23.46-51.95-52.13Z"/>
        <rect class="cls-2" x="1847.84" y="79.79" width="36.39" height="232.87"/>
        <path class="cls-16" d="M2157.77,266.78c-6.42,7.25-16.43,11.24-28.18,11.24s-21.76-3.99-28.17-11.23c-7.41-8.31-8.94-20.27-9.07-36.95v-65.53c.06-17.58,1.41-30.06,9.07-38.65,6.41-7.24,16.41-11.23,28.17-11.23s21.76,3.99,28.18,11.24c3.76,4.22,6.14,9.38,7.36,15.63h36.39c-2.09-14.14-6.66-27-16.73-38.46-12.82-14.65-32.94-23.05-55.21-23.05s-42.39,8.4-55.2,23.04c-15.3,17.42-17.94,38.03-18.4,61.48l.04,65.53c.56,22.75,3.43,42.79,18.36,59.79,12.82,14.64,32.93,23.04,55.2,23.04s42.39-8.4,55.21-23.05c10.07-11.46,14.64-24.33,16.73-38.46h-36.39c-1.22,6.24-3.6,11.41-7.36,15.63Z"/>
      </g>
    </g>
    <text class="cls-5" transform="translate(601.62 451.96) scale(.91 1)"><tspan x="0" y="0">SO</tspan><tspan class="cls-10" x="102.56" y="0">G</tspan><tspan x="154.89" y="0">ANG UNIVE</tspan><tspan class="cls-11" x="550.36" y="0">R</tspan><tspan x="598.55" y="0">SI</tspan><tspan class="cls-17" x="667.6" y="0">T</tspan><tspan x="712.25" y="0">Y </tspan><tspan class="cls-18" x="770.83" y="0">L</tspan><tspan class="cls-19" x="811.72" y="0">e</tspan><tspan x="853.14" y="0">ade</tspan><tspan class="cls-10" x="986.42" y="0">r</tspan><tspan x="1016.76" y="0">s in INdu</tspan><tspan class="cls-15" x="1328.05" y="0">s</tspan><tspan x="1362.53" y="0">t</tspan><tspan class="cls-4" x="1392.35" y="0">r</tspan><tspan x="1424.8" y="0">y-uni</tspan><tspan class="cls-10" x="1607.93" y="0">v</tspan><tspan x="1648.52" y="0">e</tspan><tspan class="cls-22" x="1691.06" y="0">r</tspan><tspan x="1721.41" y="0">sity Coope</tspan><tspan class="cls-3" x="2097.98" y="0">r</tspan><tspan class="cls-17" x="2126.67" y="0">a</tspan><tspan x="2168.68" y="0">tion 3.0 </tspan></text>
  </g>
</svg>